<svg width="24" height="25" viewBox="0 0 24 25" fill="none" xmlns="http://www.w3.org/2000/svg">
<path d="M12.4998 1.00781C12.3978 1.00783 12.2981 1.03933 12.2143 1.09809C12.1305 1.15685 12.0666 1.24005 12.0311 1.33651L6.15414 12.5655C6.05377 12.7257 6.00029 12.9113 5.99984 13.1008C5.99984 13.3681 6.1052 13.6244 6.29273 13.8134C6.48027 14.0024 6.73462 14.1086 6.99984 14.1086H11.9998V22.6745C11.9998 22.8081 12.0525 22.9363 12.1463 23.0308C12.2401 23.1253 12.3672 23.1783 12.4998 23.1783C12.5919 23.1785 12.6821 23.153 12.7607 23.1047C12.8393 23.0564 12.9031 22.9872 12.9452 22.9048L18.8651 11.5912L18.8631 11.5892C18.9518 11.4363 18.999 11.2625 18.9998 11.0853C18.9998 10.8181 18.8945 10.5617 18.7069 10.3727C18.5194 10.1837 18.2651 10.0776 17.9998 10.0776H12.9998V1.51169C12.9998 1.37805 12.9472 1.24989 12.8534 1.15539C12.7596 1.0609 12.6324 1.00781 12.4998 1.00781ZM2.99007 3.01347C2.79114 3.01353 2.59674 3.07337 2.43173 3.18534C2.26672 3.29732 2.1386 3.45634 2.06374 3.64208C1.98889 3.82782 1.9707 4.03184 2.0115 4.22805C2.05231 4.42426 2.15025 4.60376 2.29281 4.74358L4.29281 6.75908C4.38495 6.8558 4.49532 6.93301 4.61745 6.98621C4.73958 7.0394 4.87101 7.0675 5.00405 7.06887C5.13709 7.07023 5.26907 7.04483 5.39224 6.99415C5.51542 6.94347 5.62732 6.86853 5.7214 6.77372C5.81548 6.67892 5.88984 6.56614 5.94013 6.44201C5.99042 6.31788 6.01563 6.18489 6.01427 6.05081C6.01292 5.91674 5.98503 5.78429 5.93225 5.66122C5.87947 5.53814 5.80284 5.42692 5.70687 5.33406L3.70687 3.31856C3.61368 3.22202 3.50224 3.14528 3.37912 3.09288C3.25601 3.04048 3.12372 3.01348 2.99007 3.01347ZM20.9803 3.01347C20.7205 3.02128 20.4739 3.1307 20.2928 3.31856L18.2928 5.33406C18.1968 5.42692 18.1202 5.53814 18.0674 5.66122C18.0146 5.78429 17.9868 5.91674 17.9854 6.05082C17.984 6.18489 18.0093 6.31788 18.0595 6.44202C18.1098 6.56615 18.1842 6.67892 18.2783 6.77373C18.3724 6.86854 18.4843 6.94347 18.6074 6.99415C18.7306 7.04483 18.8626 7.07023 18.9956 7.06887C19.1287 7.06751 19.2601 7.0394 19.3822 6.98621C19.5044 6.93302 19.6147 6.8558 19.7069 6.75908L21.7069 4.74358C21.8514 4.60203 21.9501 4.41978 21.99 4.22073C22.03 4.02168 22.0093 3.81511 21.9308 3.62809C21.8523 3.44106 21.7195 3.28231 21.5499 3.17264C21.3803 3.06297 21.1817 3.00749 20.9803 3.01347ZM4.98031 17.122C4.72051 17.1298 4.47393 17.2392 4.29281 17.4271L2.29281 19.4426C2.19684 19.5354 2.12021 19.6467 2.06743 19.7697C2.01464 19.8928 1.98676 20.0253 1.9854 20.1593C1.98405 20.2934 2.00926 20.4264 2.05954 20.5505C2.10983 20.6747 2.1842 20.7874 2.27827 20.8822C2.37235 20.9771 2.48426 21.052 2.60743 21.1027C2.73061 21.1534 2.86259 21.1788 2.99563 21.1774C3.12867 21.176 3.2601 21.1479 3.38223 21.0947C3.50436 21.0415 3.61473 20.9643 3.70687 20.8676L5.70687 18.8521C5.85137 18.7105 5.95007 18.5283 5.99003 18.3293C6.02999 18.1302 6.00935 17.9236 5.93081 17.7366C5.85226 17.5496 5.71949 17.3908 5.54988 17.2812C5.38027 17.1715 5.18174 17.116 4.98031 17.122ZM18.9901 17.122C18.7911 17.122 18.5967 17.1819 18.4317 17.2939C18.2667 17.4058 18.1386 17.5649 18.0637 17.7506C17.9889 17.9363 17.9707 18.1404 18.0115 18.3366C18.0523 18.5328 18.1502 18.7123 18.2928 18.8521L20.2928 20.8676C20.385 20.9643 20.4953 21.0415 20.6175 21.0947C20.7396 21.1479 20.871 21.176 21.0041 21.1774C21.1371 21.1788 21.2691 21.1534 21.3922 21.1027C21.5154 21.052 21.6273 20.9771 21.7214 20.8823C21.8155 20.7874 21.8899 20.6747 21.9401 20.5505C21.9904 20.4264 22.0156 20.2934 22.0143 20.1593C22.0129 20.0253 21.985 19.8928 21.9323 19.7697C21.8795 19.6467 21.8028 19.5354 21.7069 19.4426L19.7069 17.4271C19.6137 17.3305 19.5022 17.2538 19.3791 17.2014C19.256 17.149 19.1237 17.122 18.9901 17.122Z" fill="white"/>
</svg>
