<svg width="25" height="24" viewBox="0 0 25 24" fill="none" xmlns="http://www.w3.org/2000/svg">
<path d="M12.7393 2C12.607 2.00002 12.4761 2.02626 12.3541 2.07722C12.232 2.12818 12.1213 2.20284 12.0283 2.29688L1.94238 11.0977C1.87939 11.1441 1.82819 11.2048 1.79291 11.2746C1.75763 11.3445 1.73925 11.4217 1.73926 11.5C1.73926 11.6326 1.79194 11.7598 1.8857 11.8536C1.97947 11.9473 2.10665 12 2.23926 12H4.73926V20C4.73926 20.552 5.18726 21 5.73926 21H9.73926C10.2913 21 10.7393 20.552 10.7393 20V14H14.7393V20C14.7393 20.552 15.1873 21 15.7393 21H19.7393C20.2913 21 20.7393 20.552 20.7393 20V12H23.2393C23.3719 12 23.499 11.9473 23.5928 11.8536C23.6866 11.7598 23.7393 11.6326 23.7393 11.5C23.7393 11.4217 23.7209 11.3445 23.6856 11.2746C23.6503 11.2048 23.5991 11.1441 23.5361 11.0977L13.4561 2.30273C13.4541 2.30077 13.4522 2.29882 13.4502 2.29688C13.3572 2.20284 13.2465 2.12818 13.1245 2.07722C13.0024 2.02626 12.8715 2.00002 12.7393 2Z" fill="#B5B5B5"/>
</svg>
