<svg width="48" height="48" viewBox="0 0 48 48" fill="none" xmlns="http://www.w3.org/2000/svg">
<path d="M0 24C0 10.7452 10.7452 0 24 0C37.2548 0 48 10.7452 48 24C48 37.2548 37.2548 48 24 48C10.7452 48 0 37.2548 0 24Z" fill="white" fill-opacity="0.2"/>
<path d="M24 14C23.172 14 22.5 14.672 22.5 15.5V16.1953C19.913 16.8623 18 19.205 18 22V28L16 30V31H32V30L30 28V22C30 19.205 28.087 16.8643 25.5 16.1973V15.5C25.5 14.672 24.828 14 24 14ZM22 32C22 33.105 22.896 34 24 34C25.104 34 26 33.104 26 32H22Z" fill="white"/>
</svg>
